<svg width="120" height="32" viewBox="0 0 120 32" fill="none" xmlns="http://www.w3.org/2000/svg">
  <path d="M14.1 25.5H10L4.5 15.8L8.6 8.5H12.7L8.6 15.8L14.1 25.5Z" fill="#1A1F2C"/>
  <path d="M27.7 25.5H23.6L18.1 15.8L22.2 8.5H26.3L22.2 15.8L27.7 25.5Z" fill="#1A1F2C"/>
  <path d="M41.3 25.5H37.2L31.7 15.8L35.8 8.5H39.9L35.8 15.8L41.3 25.5Z" fill="#1A1F2C"/>
  <path d="M53.8 8.5H49.7L45.6 15.8H49.7L53.8 8.5Z" fill="#9B87F5"/>
  <path d="M67.4 8.5H63.3L59.2 15.8H63.3L67.4 8.5Z" fill="#9B87F5"/>
  <path d="M81 8.5H76.9L72.8 15.8H76.9L81 8.5Z" fill="#9B87F5"/>
  <path d="M94.6 8.5H90.5L86.4 15.8H90.5L94.6 8.5Z" fill="#9B87F5"/>
  <path d="M108.2 8.5H104.1L100 15.8H104.1L108.2 8.5Z" fill="#9B87F5"/>
</svg>